<svg width="75" height="85" viewBox="0 0 75 85" fill="none" xmlns="http://www.w3.org/2000/svg">
<g clip-path="url(#clip0)">
<path d="M74.8737 24.7418C74.8731 23.3267 74.5705 22.0763 73.9585 21.0035C73.3573 19.9479 72.457 19.0634 71.2494 18.3641C61.2811 12.6164 51.3032 6.8862 41.3382 1.13259C38.6517 -0.418391 36.0469 -0.361555 33.3803 1.21169C29.4126 3.55134 9.54785 14.9323 3.62842 18.3609C1.19062 19.7724 0.00439453 21.9322 0.00380859 24.7391C0 36.2982 0.00380859 47.8573 0 59.4164C0 60.8004 0.290332 62.0267 0.875391 63.0835C1.47686 64.1707 2.38975 65.0795 3.62519 65.7946C9.54492 69.2232 29.4123 80.6033 33.3791 82.9438C36.0469 84.5179 38.6517 84.5742 41.3391 83.0229C51.3044 77.269 61.2829 71.5388 71.2526 65.7911C72.4881 65.0762 73.401 64.1669 74.0024 63.0805C74.5866 62.0235 74.8775 60.7974 74.8775 59.4132C74.8775 59.4132 74.8775 36.3011 74.8737 24.7418Z" fill="#A179DC"/>
<path d="M37.5535 41.9648L0.87561 63.0832C1.47708 64.1704 2.38997 65.0792 3.62541 65.7943C9.54514 69.2229 29.4125 80.603 33.3793 82.9436C36.0471 84.5177 38.6519 84.5739 41.3393 83.0227C51.3046 77.2688 61.2831 71.5386 71.2529 65.7908C72.4883 65.076 73.4012 64.1666 74.0027 63.0803L37.5535 41.9648Z" fill="#280068"/>
<path d="M74.8735 24.7441C74.8729 23.3291 74.5703 22.0787 73.9583 21.0059L37.5531 41.9678L74.0022 63.0829C74.5864 62.0259 74.8767 60.7998 74.8773 59.4155C74.8773 59.4155 74.8773 36.3035 74.8735 24.7441Z" fill="#390091"/>
<path d="M59.1478 34.0723V38.0197H63.0953V34.0723H65.069V38.0197H69.0165V39.9935H65.069V43.9406H69.0165V45.9143H65.069V49.8618H63.0953V45.9143H59.1478V49.8618H57.1741V45.9143H53.2269V43.9406H57.1741V39.9935H53.2269V38.0197H57.1741V34.0723H59.1478ZM63.0953 39.9932H59.1478V43.9406H63.0953V39.9935V39.9932Z" fill="white"/>
<path d="M37.634 14.2444C47.9301 14.2444 56.9192 19.836 61.7342 28.1476L61.6873 28.0676L49.573 35.0426C47.1865 31.0017 42.8113 28.2744 37.7919 28.2182L37.6337 28.2173C29.9799 28.2173 23.7748 34.4224 23.7748 42.0762C23.7723 44.4886 24.4025 46.8594 25.6026 48.9521C27.9915 53.1226 32.4824 55.9354 37.634 55.9354C42.8175 55.9354 47.3339 53.0868 49.7104 48.8719L49.6527 48.9729L61.7485 55.9802C56.9863 64.2214 48.1202 69.7957 37.9439 69.9067L37.634 69.9085C27.3053 69.9085 18.2907 64.2823 13.4878 55.9269C11.1431 51.8479 9.80164 47.119 9.80164 42.0762C9.80164 26.7053 22.2622 14.2441 37.6337 14.2441L37.634 14.2444Z" fill="white"/>
</g>
<defs>
<clipPath id="clip0">
<rect width="75" height="84.375" fill="white"/>
</clipPath>
</defs>
</svg>
