<svg width="35" height="39" viewBox="0 0 35 39" fill="none" xmlns="http://www.w3.org/2000/svg">
<path d="M32.9002 8.19994L19.5002 0.499942C18.3002 -0.200058 16.8002 -0.200058 15.6002 0.599942L2.2002 8.29994C0.900195 8.99994 0.200195 10.2999 0.200195 11.6999V27.0999C0.200195 28.4999 1.0002 29.7999 2.2002 30.4999L15.6002 38.1999C16.8002 38.8999 18.3002 38.8999 19.5002 38.1999L32.9002 30.4999C34.2002 29.7999 34.9002 28.4999 34.9002 27.0999V11.5999C34.9002 10.1999 34.1002 8.89994 32.9002 8.19994ZM26.4002 25.2999C25.5002 27.6999 23.6002 29.6999 21.4002 30.8999C20.3002 31.4999 19.0002 31.8999 17.7002 32.0999C16.4002 32.1999 15.0002 31.9999 13.8002 31.3999C11.4002 30.2999 9.6002 27.8999 9.3002 25.3999H9.5002C10.6002 27.5999 12.4002 29.1999 14.4002 29.8999C16.5002 30.5999 18.8002 30.6999 20.9002 29.6999C23.0002 28.7999 24.8002 27.0999 25.8002 24.9999C26.8002 22.8999 27.1002 20.3999 26.6002 18.0999V17.9999C27.4002 20.2999 27.3002 22.9999 26.4002 25.2999Z" fill="white"/>
</svg>
