<svg width="75" height="85" viewBox="0 0 75 85" fill="none" xmlns="http://www.w3.org/2000/svg">
<path d="M37.3239 84.7623L6.80186 76.2891L0 0H74.7393L67.9304 76.2773L37.3239 84.7623Z" fill="#264DE4"/>
<path d="M62.1012 71.4207L67.9195 6.23804H37.3696V78.277L62.1012 71.4207Z" fill="#2965F1"/>
<path d="M15.593 34.5325L16.4314 43.889H37.3696V34.5325H15.593Z" fill="#EBEBEB"/>
<path d="M13.9078 15.5947L14.7583 24.9513H37.3696V15.5947H13.9078Z" fill="#EBEBEB"/>
<path d="M37.3696 58.8327L37.3286 58.8435L26.9083 56.0298L26.2421 48.5676H16.8495L18.1602 63.2588L37.3266 68.5791L37.3696 68.5674V58.8327Z" fill="#EBEBEB"/>
<path d="M59.0865 34.5325L60.7755 15.5947H37.3374V24.9513H50.5216L49.6702 34.5325H37.3374V43.8891H48.859L47.7727 56.0238L37.3371 58.8404V68.5746L56.5187 63.2587L56.6593 61.6778L58.8583 37.045L59.0865 34.5325Z" fill="white"/>
</svg>
