<svg width="50" height="50" viewBox="0 0 50 50" fill="none" xmlns="http://www.w3.org/2000/svg">
<path fill-rule="evenodd" clip-rule="evenodd" d="M9.38748 0V21.875L25.0969 34.375L40.4844 21.875V9.47187L25 9.45625V0H9.38748ZM34.2781 25.05H15.5281V21.7781H34.2781V25.05ZM27.9781 15.625V18.75H15.4781V15.625H27.9781Z" fill="#FFC25C"/>
<path fill-rule="evenodd" clip-rule="evenodd" d="M28.125 0V6.09687H40.15L28.125 0Z" fill="#FFC25C"/>
<path fill-rule="evenodd" clip-rule="evenodd" d="M47.9375 15.5095L39.9188 9.58447V13.0376L47.1688 19.2438V21.2876L37.6969 30.0032L47.1219 43.7501L43.7031 43.797L35.6094 32.1126L25.0031 40.8188L14.8094 32.1563L6.35 43.8001H2.88437L12.6812 30.0063L2.83749 21.1938L2.88437 19.0376L16.2187 7.03447L16.1687 2.7876L2.26562 15.5126C1.14374 15.5126 0.0562439 16.422 0.0562439 17.5438V44.572C0.0562439 45.697 1.14374 46.7782 2.26562 46.7782H47.9438C49.0656 46.7782 49.975 45.697 49.975 44.572V17.5438C49.9725 17.0045 49.757 16.488 49.3753 16.107C48.9937 15.7259 48.4768 15.5111 47.9375 15.5095Z" fill="#FFC25C"/>
</svg>
