<svg width="67" height="67" viewBox="0 0 67 67" fill="none" xmlns="http://www.w3.org/2000/svg">
<path d="M54.684 9.33334H11.9826C11.28 9.33334 10.6061 9.61247 10.1093 10.1093C9.61242 10.6062 9.3333 11.28 9.3333 11.9827V54.6847C9.33347 55.3872 9.61268 56.0609 10.1095 56.5576C10.6063 57.0543 11.2801 57.3334 11.9826 57.3334H34.9713V38.7453H28.716V31.5013H34.9713V26.1587C34.9713 19.9587 38.758 16.5833 44.2886 16.5833C46.938 16.5833 49.2146 16.78 49.8786 16.8687V23.348L46.0426 23.35C43.0346 23.35 42.4526 24.7793 42.4526 26.8767V31.502H49.626L48.692 38.746H42.4526V57.3334H54.6846C55.3872 57.3332 56.0609 57.054 56.5576 56.5571C57.0543 56.0603 57.3333 55.3865 57.3333 54.684V11.9827C57.3333 11.28 57.0542 10.6062 56.5573 10.1093C56.0605 9.61247 55.3866 9.33334 54.684 9.33334Z" fill="#FFC25C"/>
</svg>
