<svg width="67" height="67" viewBox="0 0 67 67" fill="none" xmlns="http://www.w3.org/2000/svg">
<path d="M33.3073 4.96744C17.207 4.96093 4.16666 17.9948 4.16666 34.082C4.16666 46.8034 12.3242 57.6172 23.6849 61.5885C25.2148 61.9727 24.9805 60.8854 24.9805 60.1432V55.0976C16.1458 56.1328 15.7877 50.2865 15.1953 49.3099C13.9974 47.2656 11.1654 46.7448 12.0117 45.7682C14.0234 44.7331 16.0742 46.0286 18.4505 49.5378C20.1693 52.0833 23.5221 51.6536 25.2213 51.2305C25.5924 49.7005 26.3867 48.3333 27.4805 47.2721C18.3268 45.6315 14.5117 40.0456 14.5117 33.4049C14.5117 30.1823 15.5729 27.22 17.6562 24.8307C16.3281 20.8919 17.7799 17.5195 17.9752 17.0182C21.7578 16.6797 25.6901 19.7266 25.9961 19.9674C28.1445 19.388 30.5989 19.082 33.3463 19.082C36.1068 19.082 38.5677 19.401 40.7357 19.987C41.4713 19.4271 45.1172 16.8099 48.6328 17.1289C48.8216 17.6302 50.2409 20.9245 48.9909 24.8112C51.1002 27.207 52.1745 30.1953 52.1745 33.4245C52.1745 40.0781 48.3333 45.6706 39.1536 47.2851C39.9399 48.0584 40.5642 48.9805 40.9901 49.9978C41.416 51.015 41.6349 52.1069 41.6341 53.2096V60.5338C41.6862 61.1198 41.6341 61.6992 42.6107 61.6992C54.1406 57.8125 62.4414 46.9206 62.4414 34.0885C62.4414 17.9948 49.3945 4.96744 33.3073 4.96744V4.96744Z" fill="#FFC25C"/>
</svg>
