<svg width="67" height="67" viewBox="0 0 67 67" fill="none" xmlns="http://www.w3.org/2000/svg">
<path d="M57.2917 7.29169H9.37499C8.22265 7.29169 7.29166 8.22268 7.29166 9.37502V57.2917C7.29166 58.444 8.22265 59.375 9.37499 59.375H57.2917C58.444 59.375 59.375 58.444 59.375 57.2917V9.37502C59.375 8.22268 58.444 7.29169 57.2917 7.29169ZM22.7409 51.6732H15.013V26.8164H22.7409V51.6732ZM18.8802 23.418C17.9943 23.418 17.1283 23.1553 16.3917 22.6631C15.6551 22.1709 15.081 21.4714 14.742 20.6529C14.403 19.8345 14.3143 18.9339 14.4871 18.065C14.6599 17.1961 15.0865 16.398 15.7129 15.7716C16.3394 15.1452 17.1375 14.7186 18.0064 14.5457C18.8752 14.3729 19.7758 14.4616 20.5943 14.8006C21.4128 15.1396 22.1123 15.7137 22.6045 16.4503C23.0967 17.1869 23.3594 18.0529 23.3594 18.9388C23.3529 21.4128 21.3476 23.418 18.8802 23.418ZM51.6732 51.6732H43.9518V39.5834C43.9518 36.6992 43.8997 32.9948 39.9349 32.9948C35.918 32.9948 35.2995 36.1328 35.2995 39.375V51.6732H27.5846V26.8164H34.9935V30.2149H35.0976C36.1263 28.2617 38.6458 26.1979 42.4088 26.1979C50.2344 26.1979 51.6732 31.3477 51.6732 38.0404V51.6732Z" fill="#FFC25C"/>
</svg>
