<svg width="88" height="88" viewBox="0 0 88 88" fill="none" xmlns="http://www.w3.org/2000/svg">
<rect width="88" height="88" rx="44" fill="#FFC25C"/>
<path d="M34.7557 45.979C35.0941 45.1224 35.7609 44.4365 36.6077 44.074L44.8067 40.5639C45.6109 40.2196 46.5157 40.1935 47.3384 40.4907L55.4403 43.418C56.4262 43.7742 57.1969 44.5591 57.535 45.5514L60.3514 53.817C60.6042 54.5589 60.597 55.3648 60.331 56.102L57.1273 64.9818C56.6335 66.3504 55.3348 67.2625 53.8799 67.2625H37.7769C36.2889 67.2625 34.9684 66.3091 34.5001 64.8968L31.6005 56.1526C31.3457 55.3841 31.3691 54.5505 31.6666 53.7975L34.7557 45.979Z" fill="#333333"/>
<path fill-rule="evenodd" clip-rule="evenodd" d="M40.9337 37.8191C42.0968 36.5823 43.7559 35.8087 45.5977 35.8087C46.987 35.8087 48.2724 36.249 49.3194 36.9962C49.4055 36.9927 49.4921 36.991 49.5791 36.991C49.7129 36.991 49.8456 36.9951 49.9773 37.0031C50.109 36.9951 50.2417 36.991 50.3754 36.991C53.4449 36.991 56.0074 39.1398 56.6111 42.0005C56.91 42.2461 57.1881 42.5183 57.4422 42.8137C59.6235 43.9354 61.1254 46.289 61.1254 49.0108C61.1254 50.4187 60.7235 51.7281 60.0336 52.8194C60.547 53.8023 60.839 54.9307 60.839 56.1307C60.839 59.9396 57.8977 63.0273 54.2695 63.0273C50.6413 63.0273 47.7001 59.9396 47.7001 56.1307C47.7001 55.6461 47.7477 55.1731 47.8383 54.7167C47.5012 54.1686 47.2362 53.5672 47.0572 52.927C46.5274 53.0717 45.9716 53.1487 45.3986 53.1487C44.6772 53.1487 43.9829 53.0267 43.3335 52.8011C43.7362 53.6945 43.9614 54.6932 43.9614 55.7471C43.9614 59.556 41.0201 62.6437 37.3919 62.6437C33.7637 62.6437 30.8225 59.556 30.8225 55.7471C30.8225 55.3626 30.8524 54.9854 30.9101 54.618C30.1309 53.4843 29.6718 52.092 29.6718 50.5871C29.6718 48.5593 30.5055 46.7359 31.8327 45.474C32.2014 43.8073 33.1457 42.3724 34.4337 41.4126C35.5424 39.2495 37.719 37.7792 40.2227 37.7792C40.4629 37.7792 40.7001 37.7928 40.9337 37.8191Z" fill="#333333"/>
<path d="M43.8642 31.9729C44.6305 33.9251 43.8642 37.3431 43.8642 37.3431L45.015 37.9185L47.7001 37.3431L48.0836 36.9595V36.5759V35.8088V35.0416C48.0836 35.0416 48.3442 34.1747 48.659 33.6991C49.0098 33.1691 49.4257 33.0547 49.8098 32.5483C50.1747 32.0672 50.5769 31.2058 50.5769 31.2058C50.5769 31.2058 51.3348 30.4754 51.5359 29.8632C51.7462 29.2228 52.0564 28.809 52.1113 28.1371C52.1984 27.0683 51.992 26.5178 52.1113 25.452C52.2445 24.2611 51.3917 23.3813 51.5359 22.1916C51.6278 21.4333 51.9195 20.4655 51.9195 20.4655C51.9195 20.4655 52.2657 18.6214 51.5359 17.7804C50.7675 16.895 49.9852 16.142 48.8508 16.4379C48.0804 16.6389 47.4658 16.9984 47.3165 17.7804C47.074 19.0504 50.1961 17.1202 50.5769 18.3558C50.8351 19.1936 50.187 19.6741 49.8098 20.4655C49.434 21.254 49.6949 21.5655 50.0016 22.3834C51.1523 25.452 49.8693 31.6973 48.659 29.2879C47.7123 27.4031 48.0836 23.9177 48.0836 23.9177L47.3165 22.3834C47.3165 22.3834 46.9479 21.1668 46.5493 20.4655C45.6854 18.9453 44.7946 18.2858 43.2889 17.3968C42.2469 16.7817 41.6078 16.4313 40.412 16.2461C39.5978 16.1199 39.0456 15.8906 38.3023 16.2461C36.6131 17.054 39.7631 18.8568 41.1792 20.0819C42.1219 20.8975 42.9717 20.9378 43.8642 21.808C45.2554 23.1645 45.9098 24.2931 46.1657 26.2192C46.2644 26.9617 46.1657 28.1371 46.1657 28.1371C46.1657 28.1371 45.6102 25.2591 44.4396 23.9177C43.4425 22.775 41.1792 21.808 41.1792 21.808C41.1792 21.808 39.4957 20.6228 38.3023 20.0819C37.5038 19.72 36.9884 19.6826 36.1926 19.3147C35.4927 18.9912 35.208 18.1439 34.4665 18.3558C33.725 18.5676 33.5702 19.3133 33.5075 20.0819C33.4705 20.536 33.6993 21.2326 33.6993 21.2326C33.6993 21.2326 34.7999 22.0752 35.6172 22.3834C36.6084 22.7571 37.2867 22.4663 38.3023 22.767C39.6838 23.1759 40.2789 23.8393 41.5628 24.4931C42.1597 24.7971 42.5469 24.878 43.0971 25.2603C45.373 26.8415 45.3986 31.9729 45.3986 31.9729C45.3986 31.9729 45.2849 30.8824 45.015 30.2468C44.5989 29.267 43.2889 28.1371 43.2889 28.1371C43.2889 28.1371 42.2753 26.9317 41.5628 26.2192C40.8502 25.5067 40.5325 24.9701 39.6448 24.4931C38.4409 23.8462 37.5568 24.0025 36.1926 23.9177C35.3703 23.8666 34.7746 23.4701 34.0829 23.9177L34.0785 23.9206C33.8142 24.0916 33.6383 24.2054 33.5075 24.4931C33.3526 24.834 33.3655 25.1055 33.5075 25.452C33.6894 25.8958 34.075 25.9422 34.4665 26.2192C36.4579 27.6286 38.3993 26.7583 40.412 28.1371C42.0746 29.2761 43.1279 30.097 43.8642 31.9729Z" fill="#333333"/>
<path d="M44.8487 30.2592C45.0297 32.3485 43.3253 35.4087 43.3253 35.4087L44.2655 36.2869L47.0035 36.4968L47.4802 36.2378L47.589 35.87L47.8066 35.1343L48.0242 34.3987C48.0242 34.3987 48.52 33.6413 48.9568 33.2745C49.4435 32.8659 49.8748 32.8741 50.3867 32.4975C50.8731 32.1396 51.5032 31.4277 51.5032 31.4277C51.5032 31.4277 52.4372 30.9423 52.8036 30.4124C53.187 29.8579 53.6019 29.5491 53.845 28.9204C54.2318 27.9202 54.19 27.3337 54.6067 26.3456C55.0723 25.2414 54.5041 24.1558 54.9799 23.0559C55.2831 22.3548 55.8373 21.5095 55.8373 21.5095C55.8373 21.5095 56.6925 19.8393 56.2312 18.8259C55.7456 17.7589 55.209 16.8149 54.0373 16.7768C53.2415 16.751 52.5502 16.9214 52.1851 17.629C51.5924 18.778 55.1338 17.8127 55.1484 19.1056C55.1584 19.9822 54.4005 20.2591 53.8143 20.911C53.2303 21.5605 53.3921 21.9333 53.4542 22.8045C53.6871 26.0736 50.6853 31.6984 50.2082 29.0445C49.8349 26.9686 51.1798 23.7318 51.1798 23.7318L50.8794 22.0429C50.8794 22.0429 50.8711 20.7717 50.6878 19.9861C50.2906 18.2833 49.6235 17.3982 48.4318 16.1186C47.6071 15.2331 47.0936 14.7159 45.9996 14.199C45.2546 13.8471 44.7901 13.4705 43.9765 13.6006C42.1275 13.8961 44.6367 16.5184 45.6471 18.0949C46.3197 19.1444 47.1232 19.4241 47.7322 20.5118C48.6814 22.2072 48.9887 23.4751 48.6878 25.3947C48.5718 26.1346 48.1437 27.2338 48.1437 27.2338C48.1437 27.2338 48.4274 24.3164 47.6855 22.6981C47.0534 21.3195 45.1574 19.7501 45.1574 19.7501C45.1574 19.7501 43.8793 18.136 42.8884 17.2788C42.2254 16.7053 41.7417 16.5232 41.083 15.9447C40.5036 15.4359 40.4709 14.5427 39.6998 14.5355C38.9287 14.5283 38.5687 15.1994 38.2906 15.9187C38.1263 16.3436 38.1481 17.0765 38.1481 17.0765C38.1481 17.0765 38.9644 18.1967 39.6608 18.7241C40.5051 19.3636 41.2381 19.2771 42.1267 19.8536C43.3354 20.6376 43.7179 21.4426 44.7636 22.4337C45.2498 22.8946 45.5981 23.082 46.0172 23.6046C47.7511 25.7665 46.32 30.6944 46.32 30.6944C46.32 30.6944 46.5203 29.6164 46.4418 28.9304C46.3208 27.8728 45.3851 26.4177 45.3851 26.4177C45.3851 26.4177 44.755 24.9743 44.2739 24.0889C43.7928 23.2035 43.6403 22.5988 42.9244 21.8896C41.9534 20.9277 41.0613 20.8269 39.7772 20.3586C39.0032 20.0763 38.5445 19.5271 37.7542 19.7601L37.7492 19.7616C37.4472 19.8506 37.2463 19.9099 37.0392 20.1486C36.7939 20.4316 36.7293 20.6956 36.7672 21.0682C36.8157 21.5453 37.1724 21.6992 37.4692 22.0759C38.979 23.9923 41.0875 23.7084 42.6264 25.6016C43.8975 27.1655 44.6747 28.2513 44.8487 30.2592Z" fill="#333333"/>
<path d="M42.3811 30.9283C43.809 32.4502 44.4352 35.8906 44.4352 35.8906L45.6783 35.9988L47.8453 34.479L48.0395 33.9834L47.8928 33.629L47.5994 32.9201L47.3059 32.2112C47.3059 32.2112 47.2059 31.3143 47.3039 30.7589C47.4131 30.1401 47.7391 29.8813 47.8868 29.2721C48.0271 28.6932 48.0553 27.7492 48.0553 27.7492C48.0553 27.7492 48.4497 26.7953 48.3943 26.1557C48.3363 25.4865 48.4538 24.99 48.2456 24.349C47.9142 23.3292 47.5201 22.8965 47.2185 21.8678C46.8814 20.7183 45.7867 20.2191 45.4599 19.0667C45.2515 18.3322 45.1406 17.3306 45.1406 17.3306C45.1406 17.3306 44.743 15.4991 43.7726 14.9906C42.7508 14.4552 41.7673 14.0472 40.872 14.7381C40.264 15.2073 39.8551 15.7657 40.0215 16.5433C40.2917 17.8061 42.329 14.8736 43.1402 15.8752C43.6902 16.5543 43.2977 17.2369 43.2651 18.1069C43.2326 18.9738 43.5837 19.1657 44.1692 19.8086C46.366 22.2207 47.6143 28.4638 45.6166 26.6827C44.0541 25.2895 43.051 21.9322 43.051 21.9322L41.7822 20.7967C41.7822 20.7967 40.9891 19.8082 40.3665 19.3068C39.017 18.22 37.9728 17.9384 36.2942 17.671C35.1326 17.486 34.4304 17.3975 33.2965 17.6663C32.5244 17.8494 31.9457 17.8407 31.421 18.4427C30.2282 19.8109 33.7182 20.3175 35.4457 20.9285C36.5958 21.3353 37.3667 21.0597 38.493 21.5354C40.2486 22.2769 41.262 23.079 42.2263 24.7646C42.598 25.4144 42.9599 26.5369 42.9599 26.5369C42.9599 26.5369 41.3652 24.0819 39.8115 23.2732C38.4879 22.5842 36.106 22.5235 36.106 22.5235C36.106 22.5235 34.1559 22.0478 32.8882 21.9872C32.0399 21.9466 31.5673 22.1017 30.7192 22.0547C29.9731 22.0132 29.396 21.3351 28.8178 21.8037C28.2397 22.2724 28.3873 23.0184 28.6256 23.7517C28.7663 24.1849 29.2362 24.7444 29.2362 24.7444C29.2362 24.7444 30.537 25.118 31.3814 25.102C32.4055 25.0826 32.8973 24.5643 33.9152 24.4683C35.2997 24.3379 36.0826 24.7318 37.474 24.8635C38.121 24.9248 38.4962 24.857 39.1315 25.0078C41.7596 25.6314 43.7451 30.3637 43.7451 30.3637C43.7451 30.3637 43.2269 29.3978 42.7439 28.9098C41.9992 28.1575 40.4024 27.5956 40.4024 27.5956C40.4024 27.5956 39.0402 26.8547 38.1342 26.4585C37.2283 26.0623 36.7405 25.6834 35.769 25.5693C34.4512 25.4145 33.725 25.8844 32.4798 26.308C31.7292 26.5634 31.048 26.4163 30.6043 27.0844L30.6015 27.0886C30.4319 27.344 30.3191 27.5138 30.3128 27.8278C30.3055 28.1999 30.4208 28.446 30.6796 28.7139C31.0111 29.0571 31.3716 28.958 31.8256 29.0699C34.1351 29.6394 35.5281 28.1208 37.8448 28.6542C39.7585 29.0949 41.0089 29.4658 42.3811 30.9283Z" fill="#333333"/>
<path d="M42.8703 34.7882C43.5817 33.5595 44.9876 32.9095 46.3844 33.1634C47.5562 33.3765 48.5282 34.1932 48.9399 35.3108L49.618 37.1513L41.9464 36.3841L42.8703 34.7882Z" fill="#161616"/>
<path d="M41.1792 37.7267C41.1792 36.4556 42.2096 35.4252 43.4807 35.4252H48.0837C49.3547 35.4252 50.3852 36.4556 50.3852 37.7267H41.1792Z" fill="#333333"/>
<path d="M35.5974 52.2982C34.8313 51.7338 35.317 50.5197 36.261 50.6394L45.7444 51.8415C46.1513 51.8931 46.5633 51.8893 46.9692 51.8304L55.4545 50.5987C56.3845 50.4637 56.9668 51.5734 56.3274 52.262C55.9781 52.6382 55.8769 53.1821 56.0676 53.6588L57.3909 56.9672C57.9477 58.3593 58.0399 59.894 57.6535 61.3427L56.9315 64.0504C56.0507 67.3534 53.9803 70.2143 51.1182 72.0834C48.0994 74.0549 44.1689 74.0648 41.1148 72.1484C38.0991 70.2562 35.8744 67.2678 34.9571 63.8278L34.2306 61.1037C33.8865 59.8131 33.9867 58.4443 34.5151 57.2176L35.9976 53.776C36.2241 53.2503 36.0582 52.6378 35.5974 52.2982Z" fill="#D1A57E"/>
<path d="M45.937 60.8997C45.9749 60.8042 46.0672 60.7416 46.1699 60.7416C46.2729 60.7416 46.3655 60.8047 46.4031 60.9006L47.1872 62.8991C47.4567 63.5861 47.0496 64.3515 46.3293 64.512L46.2967 64.5193C46.1256 64.5574 45.9477 64.5529 45.7787 64.5061C45.1661 64.3363 44.8362 63.6725 45.0707 63.0816L45.937 60.8997Z" fill="#333333"/>
<rect x="43.8643" y="68.7968" width="4.60298" height="1.53433" rx="0.767163" fill="#333333"/>
<path d="M43.6033 68.6517C43.5356 68.0198 43.993 67.4527 44.6249 67.385L45.7691 67.2625L45.8712 68.216L44.727 68.3385L43.6033 68.6517Z" fill="#333333"/>
<path d="M48.8378 68.6517C48.9054 68.0198 48.448 67.4527 47.8161 67.385L46.6719 67.2625L46.5698 68.216L47.714 68.3385L48.8378 68.6517Z" fill="#333333"/>
<path d="M39.8367 71.2901C41.6397 72.7996 43.7969 73.826 46.1056 74.2728L46.5494 74.3587C48.6471 73.8553 50.5858 72.8357 52.1893 71.3925L52.3031 71.2901L46.5494 73.208L39.8367 71.2901Z" fill="#333333"/>
<path d="M42.33 72.6326C43.1883 74.288 44.6792 75.5263 46.4641 76.0663L46.5254 76.0848C48.1411 75.5309 49.4813 74.3757 50.2676 72.8594L50.3852 72.6326L46.5254 73.208L42.33 72.6326Z" fill="#333333"/>
<path fill-rule="evenodd" clip-rule="evenodd" d="M37.6683 57.2893C37.277 57.2893 36.9598 57.6065 36.9598 57.9978C36.9598 58.3891 37.277 58.7063 37.6683 58.7063H42.005C42.3963 58.7063 42.7135 58.3891 42.7135 57.9978C42.7135 57.6065 42.3963 57.2893 42.005 57.2893L39.8366 57.2893L37.6683 57.2893ZM50.3265 57.2896C49.9352 57.2896 49.618 57.6068 49.618 57.9981C49.618 58.3893 49.9352 58.7066 50.3265 58.7066H54.6632C55.0545 58.7066 55.3717 58.3893 55.3717 57.9981C55.3717 57.6068 55.0545 57.2896 54.6632 57.2896L52.6866 57.2895L50.3265 57.2896Z" fill="#333333"/>
<rect x="36.0008" y="55.9468" width="7.28805" height="4.60298" rx="1.34254" stroke="#333333" stroke-width="0.383582"/>
<rect x="48.659" y="55.9468" width="7.28805" height="4.60298" rx="1.34254" stroke="#333333" stroke-width="0.383582"/>
<rect x="35.6172" y="55.5632" width="8.05521" height="5.37014" rx="1.34254" stroke="#333333" stroke-width="1.15075"/>
<rect x="48.2754" y="55.5632" width="8.05521" height="5.37014" rx="1.34254" stroke="#333333" stroke-width="1.15075"/>
<rect x="44.2478" y="58.0565" width="3.45224" height="0.767163" fill="#333333"/>
</svg>
