<svg width="50" height="50" viewBox="0 0 50 50" fill="none" xmlns="http://www.w3.org/2000/svg">
<path d="M45.8333 35.25V41.5C45.8357 42.0802 45.7168 42.6546 45.4844 43.1862C45.2519 43.7178 44.911 44.195 44.4835 44.5873C44.0559 44.9795 43.5512 45.2781 43.0016 45.464C42.4519 45.6499 41.8695 45.7189 41.2917 45.6667C34.8809 44.9701 28.7229 42.7795 23.3125 39.2709C18.2788 36.0723 14.0111 31.8046 10.8125 26.7709C7.29161 21.3359 5.1005 15.1479 4.41666 8.70837C4.3646 8.13226 4.43307 7.55162 4.6177 7.00342C4.80234 6.45522 5.0991 5.95147 5.48909 5.52425C5.87908 5.09702 6.35375 4.75568 6.88289 4.52196C7.41203 4.28824 7.98404 4.16725 8.56249 4.16671H14.8125C15.8235 4.15675 16.8037 4.51479 17.5703 5.17407C18.3369 5.83334 18.8377 6.74889 18.9792 7.75004C19.243 9.75018 19.7322 11.7141 20.4375 13.6042C20.7178 14.3499 20.7785 15.1603 20.6123 15.9394C20.4461 16.7185 20.0601 17.4336 19.5 18L16.8542 20.6459C19.8199 25.8616 24.1384 30.1801 29.3542 33.1459L32 30.5C32.5664 29.9399 33.2816 29.5539 34.0607 29.3877C34.8398 29.2216 35.6501 29.2822 36.3958 29.5625C38.286 30.2678 40.2499 30.7571 42.25 31.0209C43.262 31.1636 44.1862 31.6734 44.8469 32.4531C45.5076 33.2329 45.8587 34.2283 45.8333 35.25Z" stroke="#FFC25C" stroke-width="2" stroke-linecap="round" stroke-linejoin="round"/>
</svg>
