<svg width="75" height="67" viewBox="0 0 75 67" fill="none" xmlns="http://www.w3.org/2000/svg">
<g clip-path="url(#clip0)">
<path d="M61.6649 21.6283C60.8668 21.3545 60.0618 21.1008 59.2509 20.8675C59.3871 20.3108 59.5125 19.7609 59.6238 19.2207C61.4514 10.3493 60.2566 3.20234 56.1759 0.849217C52.2633 -1.40664 45.8646 0.945603 39.4022 6.56973C38.7654 7.125 38.1426 7.69627 37.5346 8.28301C37.1275 7.89285 36.7133 7.51026 36.2921 7.13545C29.5192 1.12197 22.7306 -1.4125 18.6542 0.947361C14.7451 3.21025 13.5876 9.92891 15.2329 18.3365C15.3966 19.1692 15.5814 19.9976 15.7872 20.8209C14.8263 21.0939 13.899 21.3846 13.0116 21.6939C5.071 24.4625 0 28.8011 0 33.3014C0 37.9493 5.44395 42.6113 13.7145 45.4382C14.385 45.6664 15.061 45.8779 15.7421 46.0725C15.5209 46.9592 15.3245 47.8519 15.1532 48.7496C13.5847 57.0113 14.8096 63.5712 18.7081 65.8197C22.7347 68.1418 29.4929 65.7553 36.0732 60.0028C36.6068 59.5352 37.1287 59.0543 37.6383 58.5606C38.2967 59.1959 38.9728 59.8127 39.6656 60.4104C46.04 65.8953 52.3354 68.1102 56.2301 65.8555C60.2528 63.5267 61.5604 56.4796 59.8629 47.9059C59.7292 47.2342 59.5792 46.5658 59.4132 45.9014C59.8878 45.7607 60.3536 45.616 60.8077 45.4654C69.4058 42.6169 75 38.0114 75 33.3014C75 28.7847 69.7652 24.4168 61.6649 21.6283ZM59.8002 42.4244C59.39 42.5601 58.9693 42.691 58.5404 42.8185C57.5912 39.8135 56.3103 36.6184 54.7427 33.3169C56.2386 30.0942 57.4702 26.9398 58.3928 23.9545C59.1601 24.1766 59.9045 24.4106 60.6223 24.6576C67.5627 27.0471 71.7961 30.5794 71.7961 33.3014C71.7961 36.2006 67.224 39.9644 59.8002 42.4244ZM56.7199 48.5281C57.4705 52.3191 57.5774 55.7469 57.0803 58.4267C56.6338 60.8346 55.7355 62.4398 54.6246 63.0828C52.2612 64.451 47.2066 62.6727 41.7554 57.9816C41.1109 57.426 40.4821 56.8525 39.8695 56.2619C41.983 53.9507 44.095 51.2639 46.1563 48.2797C49.7821 47.958 53.2075 47.4318 56.3139 46.7138C56.4668 47.3311 56.6027 47.9363 56.7199 48.5281ZM25.5691 62.8464C23.26 63.6617 21.4207 63.6852 20.3089 63.0441C17.9432 61.6798 16.9597 56.4125 18.3012 49.3473C18.4606 48.5124 18.6432 47.6821 18.8487 46.8573C21.9208 47.537 25.3213 48.0257 28.9556 48.3204C31.031 51.2404 33.2039 53.9243 35.3938 56.2745C34.9285 56.7248 34.452 57.1637 33.965 57.5905C31.055 60.1341 28.1391 61.9388 25.5691 62.8464ZM14.751 42.4065C11.0938 41.1564 8.07363 39.5319 6.00352 37.7592C4.14316 36.1663 3.2042 34.5846 3.2042 33.3014C3.2042 30.5703 7.27559 27.0869 14.0663 24.7194C14.8904 24.4323 15.7529 24.1613 16.6479 23.907C17.5866 26.9598 18.8177 30.1517 20.3033 33.3793C18.7983 36.6547 17.5497 39.8976 16.602 42.9863C15.9803 42.8083 15.3631 42.6149 14.751 42.4065ZM18.3773 17.721C16.9679 10.5178 17.9039 5.08408 20.2597 3.72031C22.7687 2.26777 28.3169 4.33877 34.1648 9.53135C34.5462 9.87072 34.9213 10.217 35.2901 10.5699C33.111 12.9099 30.958 15.5738 28.9011 18.4766C25.3737 18.8035 21.9973 19.3285 18.893 20.0319C18.7017 19.2662 18.5298 18.4957 18.3773 17.7213V17.721ZM50.729 25.7097C49.9958 24.4431 49.2353 23.1926 48.4482 21.9588C50.8412 22.2614 53.134 22.6631 55.287 23.1541C54.6407 25.226 53.8351 27.3919 52.8867 29.6126C52.1935 28.2974 51.4742 26.9962 50.729 25.7097ZM37.536 12.8598C39.0138 14.4608 40.4938 16.2482 41.9496 18.1877C38.9965 18.0482 36.0384 18.0476 33.0853 18.1859C34.5425 16.2644 36.0352 14.4793 37.536 12.8598ZM24.2584 25.7316C23.5226 27.0078 22.8166 28.3009 22.1411 29.61C21.2083 27.3972 20.41 25.2213 19.7581 23.1201C21.8979 22.6414 24.1799 22.25 26.5576 21.9529C25.7617 23.1942 24.9951 24.4541 24.2584 25.7313V25.7316ZM26.6259 44.8777C24.1693 44.6035 21.8531 44.2323 19.7139 43.7665C20.376 41.6278 21.1919 39.4057 22.1449 37.1454C22.8231 38.4555 23.532 39.7494 24.271 41.0261C25.031 42.3386 25.8179 43.6241 26.6259 44.8777ZM37.6245 53.9686C36.1058 52.3303 34.5911 50.5177 33.1119 48.5683C34.548 48.6245 36.012 48.6532 37.5 48.6532C39.0287 48.6532 40.5398 48.6189 42.0272 48.5527C40.5668 50.5373 39.0923 52.3525 37.6245 53.9686ZM52.9169 37.03C53.9194 39.3151 54.7644 41.5256 55.4353 43.6276C53.2608 44.1239 50.913 44.5235 48.4392 44.8203C49.2319 43.5636 49.9995 42.2913 50.7416 41.0041C51.4961 39.6957 52.2214 38.3707 52.9169 37.03ZM47.9663 39.4033C46.8302 41.3769 45.6303 43.313 44.3684 45.2085C42.0825 45.3704 39.7916 45.4508 37.5 45.4496C35.1659 45.4496 32.8957 45.377 30.7096 45.2352C29.4147 43.344 28.1919 41.4045 27.0437 39.4209H27.0439C25.9011 37.4478 24.8337 35.432 23.8438 33.3778C24.8311 31.3232 25.8954 29.3065 27.0343 27.3318L27.034 27.3321C28.1725 25.357 29.3855 23.4258 30.6706 21.5428C32.901 21.374 35.1882 21.2861 37.4997 21.2861H37.5C39.8221 21.2861 42.1122 21.3749 44.342 21.5448C45.6141 23.4251 46.8194 25.3496 47.9558 27.3148C49.0985 29.2851 50.1768 31.292 51.189 33.3324C50.1872 35.3937 49.1123 37.4186 47.9663 39.4033ZM54.5757 3.6248C57.087 5.07324 58.0638 10.9142 56.4858 18.5738C56.3851 19.0625 56.272 19.5603 56.1489 20.065C53.037 19.3467 49.6582 18.8126 46.1206 18.4807C44.0599 15.546 41.9244 12.8779 39.7808 10.5682C40.3426 10.0266 40.9177 9.49911 41.5058 8.98613C47.0429 4.16767 52.2179 2.26513 54.5757 3.6248ZM37.5 26.6041C41.1987 26.6041 44.1973 29.6026 44.1973 33.3014C44.1973 37.0001 41.1987 39.9986 37.5 39.9986C33.8013 39.9986 30.8027 37.0001 30.8027 33.3014C30.8027 29.6026 33.8013 26.6041 37.5 26.6041Z" fill="#00D8FF"/>
</g>
<defs>
<clipPath id="clip0">
<rect width="75" height="66.7969" fill="white"/>
</clipPath>
</defs>
</svg>
