<svg width="50" height="50" viewBox="0 0 50 50" fill="none" xmlns="http://www.w3.org/2000/svg">
<path d="M43.1494 28.252C43.3496 27.1533 43.4571 26.0303 43.4571 24.9072C43.4571 22.417 42.9688 20 42.0069 17.7295C41.0791 15.5322 39.7461 13.5596 38.0518 11.8652C36.3716 10.1808 34.3799 8.83914 32.1875 7.91504C29.9121 6.95313 27.5 6.46484 25.0098 6.46484C23.8379 6.46484 22.6612 6.57715 21.5186 6.79687C19.9376 5.9591 18.176 5.51995 16.3868 5.51758C13.4717 5.51758 10.7276 6.65527 8.66702 8.71582C7.65024 9.72738 6.84406 10.9305 6.2951 12.2555C5.74614 13.5806 5.46529 15.0013 5.46878 16.4355C5.46878 18.291 5.9473 20.1172 6.84085 21.7285C6.66019 22.7734 6.56253 23.8428 6.56253 24.9072C6.56253 27.3975 7.05081 29.8145 8.01273 32.085C8.94046 34.2822 10.2686 36.2549 11.9629 37.9492C13.6573 39.6436 15.6299 40.9717 17.8272 41.8994C20.1026 42.8613 22.5147 43.3496 25.0049 43.3496C26.0889 43.3496 27.1729 43.252 28.2373 43.0615C29.8731 43.9844 31.7188 44.4775 33.6084 44.4775C36.5235 44.4775 39.2676 43.3447 41.3282 41.2793C43.3936 39.2188 44.5264 36.4746 44.5264 33.5596C44.5313 31.7041 44.0528 29.873 43.1494 28.252ZM38.8477 38.7988C37.4463 40.2051 35.5957 40.9668 33.6133 40.9668C32.3389 40.9668 31.084 40.6348 29.9707 40.0049L28.8721 39.3848L27.627 39.6045C26.7578 39.7607 25.8789 39.8389 25.0098 39.8389C22.9883 39.8389 21.0401 39.4434 19.1944 38.6621C17.4219 37.915 15.8252 36.8408 14.4483 35.4639C13.0852 34.1055 11.999 32.4953 11.25 30.7227C10.4688 28.8818 10.0782 26.9336 10.0782 24.9121C10.0782 24.0625 10.1563 23.1934 10.3028 22.334L10.5176 21.1084L9.91214 20.0195C9.30146 18.9237 8.98046 17.6901 8.97952 16.4355C8.97952 14.4531 9.74613 12.6025 11.1475 11.2012C12.5537 9.7998 14.4043 9.0332 16.3868 9.0332C17.6027 9.03649 18.7994 9.33651 19.8731 9.90723L20.9668 10.4834L22.1778 10.249C23.1006 10.0732 24.0528 9.98047 25.0098 9.98047C27.0313 9.98047 28.9795 10.376 30.8203 11.1523C32.6026 11.9043 34.1944 12.9785 35.5664 14.3506C36.9434 15.7227 38.0176 17.3193 38.7696 19.0967C39.5508 20.9375 39.9414 22.8857 39.9414 24.9072C39.9414 25.8057 39.8584 26.7139 39.6924 27.6172L39.4629 28.8623L40.0782 29.9658C40.6934 31.0645 41.0157 32.3096 41.0157 33.5645C41.0157 35.5518 40.2491 37.3975 38.8477 38.7988ZM28.4864 22.7637L24.17 21.8066C22.5293 21.4307 20.6397 20.9375 20.6397 19.3896C20.6397 17.8418 21.9629 16.7578 24.3555 16.7578C29.1748 16.7578 28.7354 20.0684 31.128 20.0684C32.3877 20.0684 33.4912 19.3262 33.4912 18.0566C33.4912 15.0879 28.7354 12.8564 24.7022 12.8564C20.3223 12.8564 15.6592 14.7168 15.6592 19.668C15.6592 22.0508 16.5088 24.5898 21.2061 25.7666L27.0362 27.2217C28.7989 27.6562 29.2432 28.6475 29.2432 29.5459C29.2432 31.0352 27.7637 32.4902 25.083 32.4902C19.8487 32.4902 20.5762 28.4619 17.7735 28.4619C16.5137 28.4619 15.6006 29.3311 15.6006 30.5664C15.6006 32.9785 18.5303 36.2012 25.083 36.2012C31.3184 36.2012 34.4092 33.1982 34.4092 29.1699C34.4092 26.5772 33.2129 23.8184 28.4864 22.7637Z" fill="#FFC25C"/>
</svg>
