<svg width="45" height="45" viewBox="0 0 45 45" fill="none" xmlns="http://www.w3.org/2000/svg">
<path d="M31.478 13.7899C32.313 12.9593 32.313 11.6058 31.478 10.7753L28.4062 7.70348L28.4106 7.70787C27.5976 6.89488 26.2002 5.49742 24.2226 3.52428C23.291 2.61461 21.7837 2.6234 20.8608 3.54625L3.55514 20.8387C3.33373 21.0586 3.158 21.3202 3.03809 21.6083C2.91818 21.8964 2.85645 22.2054 2.85645 22.5174C2.85645 22.8295 2.91818 23.1385 3.03809 23.4266C3.158 23.7147 3.33373 23.9762 3.55514 24.1962L20.8564 41.4842C21.3025 41.9295 21.907 42.1797 22.5373 42.1797C23.1676 42.1797 23.7722 41.9295 24.2182 41.4842L31.4736 34.2333C32.3086 33.4027 32.3086 32.0492 31.4736 31.2186C31.0726 30.8196 30.5298 30.5956 29.9641 30.5956C29.3983 30.5956 28.8556 30.8196 28.4546 31.2186L22.9614 36.7206C22.7329 36.9491 22.3769 36.9491 22.1484 36.7206L8.3276 22.913C8.09909 22.6844 8.09909 22.3285 8.3276 22.1L22.144 8.29235C22.1616 8.27477 22.1836 8.26158 22.2011 8.24401C22.4297 8.06383 22.7461 8.08141 22.957 8.29235L28.459 13.7899C29.2939 14.6249 30.6474 14.6249 31.478 13.7899ZM17.956 22.6053C17.956 23.8431 18.4482 25.0302 19.3242 25.9054C20.2003 26.7806 21.3885 27.2723 22.6274 27.2723C23.8663 27.2723 25.0545 26.7806 25.9306 25.9054C26.8066 25.0302 27.2988 23.8431 27.2988 22.6053C27.2988 21.3676 26.8066 20.1805 25.9306 19.3053C25.0545 18.43 23.8663 17.9383 22.6274 17.9383C21.3885 17.9383 20.2003 18.43 19.3242 19.3053C18.4482 20.1805 17.956 21.3676 17.956 22.6053ZM41.5195 20.909L36.1186 15.5345C35.2837 14.704 33.9301 14.704 33.0996 15.5389C32.9011 15.7366 32.7436 15.9714 32.6361 16.2301C32.5286 16.4888 32.4733 16.7661 32.4733 17.0463C32.4733 17.3264 32.5286 17.6037 32.6361 17.8624C32.7436 18.1211 32.9011 18.3559 33.0996 18.5536L36.747 22.1966C36.9756 22.4252 36.9756 22.7811 36.747 23.0096L33.1523 26.6C32.9538 26.7976 32.7963 27.0325 32.6888 27.2912C32.5813 27.5498 32.526 27.8272 32.526 28.1073C32.526 28.3874 32.5813 28.6648 32.6888 28.9234C32.7963 29.1821 32.9538 29.417 33.1523 29.6146C33.5534 30.0137 34.0961 30.2377 34.6618 30.2377C35.2276 30.2377 35.7703 30.0137 36.1714 29.6146L41.5239 24.2665C41.7445 24.046 41.9195 23.7841 42.0387 23.4959C42.158 23.2077 42.2192 22.8988 42.2187 22.5868C42.2183 22.2749 42.1564 21.9662 42.0364 21.6782C41.9164 21.3903 41.7407 21.1289 41.5195 20.909Z" fill="white"/>
</svg>
