<svg width="45" height="45" viewBox="0 0 45 45" fill="none" xmlns="http://www.w3.org/2000/svg">
<path d="M23.625 33.8625C22.95 34.3875 21.9938 34.3875 21.3188 33.8625L9.7875 24.9C9.46084 24.6448 9.05825 24.5062 8.64375 24.5062C8.22926 24.5062 7.82667 24.6448 7.5 24.9C7.27667 25.0748 7.09605 25.2982 6.97184 25.5533C6.84763 25.8083 6.78308 26.0882 6.78308 26.3718C6.78308 26.6555 6.84763 26.9354 6.97184 27.1904C7.09605 27.4455 7.27667 27.6689 7.5 27.8437L20.175 37.7062C21.525 38.7562 23.4188 38.7562 24.7875 37.7062L37.4625 27.8437C38.4188 27.0937 38.4188 25.65 37.4625 24.9L37.4438 24.8812C37.1171 24.6261 36.7145 24.4875 36.3 24.4875C35.8855 24.4875 35.4829 24.6261 35.1563 24.8812L23.625 33.8625ZM24.8063 28.2L37.4813 18.3375C38.4375 17.5875 38.4375 16.125 37.4813 15.375L24.8063 5.51248C23.4563 4.46248 21.5625 4.46248 20.1938 5.51248L7.51875 15.3937C6.5625 16.1437 6.5625 17.6062 7.51875 18.3562L20.1938 28.2187C21.5438 29.2687 23.4563 29.2687 24.8063 28.2Z" fill="white"/>
</svg>
