<svg width="75" height="75" viewBox="0 0 75 75" fill="none" xmlns="http://www.w3.org/2000/svg">
<path d="M0 37.4992C0 17.2555 16.7594 0.996094 37.5 0.996094C58.2406 0.996094 75 17.2555 75 37.4992C75 57.7367 58.2406 74.0023 37.5 74.0023C16.7594 74.0023 0 57.7398 0 37.4992ZM36.6688 49.9367C33.0187 49.9367 30.0344 49.6117 28.0438 49.2773C25.7188 48.7836 24.2219 47.4523 23.2281 45.6273C22.3969 43.7961 21.9031 40.818 22.0687 36.8336C22.0687 34.6805 22.2344 32.6867 22.3937 30.693C22.7312 28.7055 22.8938 27.0461 23.2281 25.7117L23.5562 24.3867V24.2242C23.5562 23.8961 23.2281 23.5586 22.8938 23.5586L18.0812 22.8961H17.9188C17.5906 22.8961 17.2531 23.2242 17.0875 23.3961C17.0875 23.7211 16.9219 23.893 16.7625 24.5555C16.425 26.0492 16.2594 27.3742 15.9281 29.1992C15.5863 31.3393 15.4201 33.5039 15.4313 35.6711C15.4313 35.6711 15.2656 36.168 15.4313 40.1523C15.5969 44.1367 16.2625 47.2867 17.5875 49.7773C18.9156 52.0961 21.075 53.9211 24.225 54.918C27.3813 55.918 31.6906 56.4148 37.1688 56.4148H37.8344C43.3125 56.4148 47.6219 55.9211 50.7719 54.918C53.9281 53.9242 56.0875 52.0992 57.4156 49.7773C58.7437 47.293 59.4094 44.1367 59.5719 40.1523C59.7375 36.168 59.5719 35.6711 59.5719 35.6711C59.5719 33.3492 59.2469 31.1867 59.0719 29.2055C58.7438 27.2117 58.5781 25.8836 58.2406 24.5586C58.075 23.8961 58.075 23.5617 57.9125 23.3992C57.9125 23.0648 57.5844 22.8992 57.0813 22.8992H56.9156L52.1031 23.5617C51.775 23.5617 51.4375 23.8961 51.4375 24.2273V24.3898L51.7687 25.7148C52.1 27.0492 52.2625 28.7055 52.6 30.693C52.9281 32.6898 52.9281 34.6773 52.9281 36.8336C52.9281 40.818 52.6031 43.6367 51.7687 45.6273C50.9375 47.4586 49.2844 48.7836 46.9594 49.2773C44.9625 49.7773 41.9781 49.943 38.3281 49.943H36.6688V49.9367Z" fill="#EC6D20"/>
</svg>
