<svg width="45" height="45" viewBox="0 0 45 45" fill="none" xmlns="http://www.w3.org/2000/svg">
<path d="M30.675 26.25C30.825 25.0125 30.9375 23.775 30.9375 22.5C30.9375 21.225 30.825 19.9875 30.675 18.75H37.0125C37.3125 19.95 37.5 21.2062 37.5 22.5C37.5 23.7938 37.3125 25.05 37.0125 26.25H30.675ZM27.3563 36.675C28.4813 34.5937 29.3438 32.3438 29.9438 30H35.475C33.6584 33.128 30.7765 35.4975 27.3563 36.675ZM26.8875 26.25H18.1125C17.925 25.0125 17.8125 23.775 17.8125 22.5C17.8125 21.225 17.925 19.9688 18.1125 18.75H26.8875C27.0562 19.9688 27.1875 21.225 27.1875 22.5C27.1875 23.775 27.0562 25.0125 26.8875 26.25ZM22.5 37.425C20.9438 35.175 19.6875 32.6812 18.9188 30H26.0812C25.3125 32.6812 24.0562 35.175 22.5 37.425ZM15 15H9.525C11.3229 11.8635 14.2027 9.49029 17.625 8.325C16.5 10.4062 15.6562 12.6562 15 15ZM9.525 30H15C15.6562 32.3438 16.5 34.5937 17.625 36.675C14.2099 35.4969 11.3341 33.127 9.525 30ZM7.9875 26.25C7.6875 25.05 7.5 23.7938 7.5 22.5C7.5 21.2062 7.6875 19.95 7.9875 18.75H14.325C14.175 19.9875 14.0625 21.225 14.0625 22.5C14.0625 23.775 14.175 25.0125 14.325 26.25H7.9875ZM22.5 7.55625C24.0562 9.80625 25.3125 12.3188 26.0812 15H18.9188C19.6875 12.3188 20.9438 9.80625 22.5 7.55625ZM35.475 15H29.9438C29.3569 12.6777 28.488 10.4361 27.3563 8.325C30.8062 9.50625 33.675 11.8875 35.475 15ZM22.5 3.75C12.1312 3.75 3.75 12.1875 3.75 22.5C3.75 27.4728 5.72544 32.2419 9.24175 35.7583C10.9828 37.4994 13.0498 38.8805 15.3247 39.8227C17.5995 40.765 20.0377 41.25 22.5 41.25C27.4728 41.25 32.2419 39.2746 35.7583 35.7583C39.2746 32.2419 41.25 27.4728 41.25 22.5C41.25 20.0377 40.765 17.5995 39.8227 15.3247C38.8805 13.0498 37.4994 10.9828 35.7583 9.24175C34.0172 7.50065 31.9502 6.11953 29.6753 5.17726C27.4005 4.23498 24.9623 3.75 22.5 3.75Z" fill="white"/>
</svg>
